<svg xmlns="http://www.w3.org/2000/svg" xmlns:xlink="http://www.w3.org/1999/xlink" width="500" zoomAndPan="magnify" viewBox="0 0 375 374.999991" height="500" preserveAspectRatio="xMidYMid meet" version="1.0"><defs><g/><clipPath id="f83982a9f7"><path d="M 69.464844 147.027344 L 145.964844 147.027344 L 145.964844 227.859375 L 69.464844 227.859375 Z M 69.464844 147.027344 " clip-rule="nonzero"/></clipPath><clipPath id="c8e41d9b19"><path d="M 122 158.222656 L 216.917969 158.222656 L 216.917969 196.105469 L 122 196.105469 Z M 122 158.222656 " clip-rule="nonzero"/></clipPath><clipPath id="21b1d090b1"><path d="M 84.472656 161.390625 L 116.023438 161.390625 L 116.023438 192.941406 L 84.472656 192.941406 Z M 84.472656 161.390625 " clip-rule="nonzero"/></clipPath><clipPath id="4b50097dcb"><path d="M 100.25 161.390625 C 91.535156 161.390625 84.472656 168.453125 84.472656 177.164062 C 84.472656 185.878906 91.535156 192.941406 100.25 192.941406 C 108.960938 192.941406 116.023438 185.878906 116.023438 177.164062 C 116.023438 168.453125 108.960938 161.390625 100.25 161.390625 Z M 100.25 161.390625 " clip-rule="nonzero"/></clipPath></defs><g clip-path="url(#f83982a9f7)"><path fill="#6a38c2" d="M 121.945312 178.976562 C 121.664062 184.585938 119.257812 190.050781 114.753906 194.117188 C 110.261719 198.179688 104.585938 200.023438 98.972656 199.742188 C 93.359375 199.453125 87.894531 197.050781 83.828125 192.558594 C 79.765625 188.058594 77.933594 182.382812 78.207031 176.761719 C 78.492188 171.15625 80.898438 165.691406 85.394531 161.632812 C 89.890625 157.570312 95.570312 155.722656 101.179688 156.007812 C 106.796875 156.289062 112.253906 158.691406 116.320312 163.191406 C 120.386719 167.683594 122.21875 173.367188 121.945312 178.976562 Z M 143.996094 218.855469 L 124.109375 196.847656 C 128.148438 191.746094 130.375 185.628906 130.691406 179.425781 C 131.097656 171.601562 128.484375 163.585938 122.820312 157.316406 C 117.15625 151.046875 109.4375 147.648438 101.621094 147.257812 C 93.800781 146.855469 85.78125 149.460938 79.527344 155.128906 C 73.246094 160.800781 69.855469 168.507812 69.464844 176.324219 C 69.054688 184.144531 71.664062 192.160156 77.328125 198.429688 C 82.996094 204.699219 90.710938 208.097656 98.53125 208.488281 C 104.734375 208.808594 111.054688 207.199219 116.535156 203.699219 L 136.414062 225.699219 C 138.308594 227.796875 141.539062 227.953125 143.632812 226.0625 C 145.726562 224.175781 145.886719 220.941406 143.996094 218.855469 " fill-opacity="1" fill-rule="nonzero"/></g><g clip-path="url(#c8e41d9b19)"><path fill="#6a38c2" d="M 122 158.222656 L 216.859375 158.222656 L 216.859375 196.105469 L 122 196.105469 Z M 122 158.222656 " fill-opacity="1" fill-rule="nonzero"/></g><g clip-path="url(#21b1d090b1)"><g clip-path="url(#4b50097dcb)"><path fill="#6a38c2" d="M 84.472656 161.390625 L 116.023438 161.390625 L 116.023438 192.941406 L 84.472656 192.941406 Z M 84.472656 161.390625 " fill-opacity="1" fill-rule="nonzero"/></g></g><g fill="#ffffff" fill-opacity="1"><g transform="translate(128.01094, 191.790338)"><g><path d="M 10.734375 0.515625 C 8.085938 0.515625 6.039062 -0.3125 4.59375 -1.96875 C 3.15625 -3.625 2.4375 -6.046875 2.4375 -9.234375 L 2.4375 -21.21875 L 7.875 -21.21875 L 7.875 -9.75 C 7.875 -7.925781 8.242188 -6.53125 8.984375 -5.5625 C 9.722656 -4.59375 10.890625 -4.109375 12.484375 -4.109375 C 14.003906 -4.109375 15.253906 -4.648438 16.234375 -5.734375 C 17.222656 -6.816406 17.71875 -8.328125 17.71875 -10.265625 L 17.71875 -21.21875 L 23.1875 -21.21875 L 23.1875 0 L 18.359375 0 L 17.921875 -3.59375 C 17.265625 -2.34375 16.316406 -1.34375 15.078125 -0.59375 C 13.835938 0.144531 12.390625 0.515625 10.734375 0.515625 Z M 10.734375 0.515625 "/></g></g></g><g fill="#ffffff" fill-opacity="1"><g transform="translate(154.017145, 191.790338)"><g><path d="M 5.734375 -24.515625 C 4.734375 -24.515625 3.910156 -24.8125 3.265625 -25.40625 C 2.628906 -26.007812 2.3125 -26.765625 2.3125 -27.671875 C 2.3125 -28.585938 2.628906 -29.335938 3.265625 -29.921875 C 3.910156 -30.503906 4.734375 -30.796875 5.734375 -30.796875 C 6.734375 -30.796875 7.550781 -30.503906 8.1875 -29.921875 C 8.832031 -29.335938 9.15625 -28.585938 9.15625 -27.671875 C 9.15625 -26.765625 8.832031 -26.007812 8.1875 -25.40625 C 7.550781 -24.8125 6.734375 -24.515625 5.734375 -24.515625 Z M 3 0 L 3 -21.21875 L 8.46875 -21.21875 L 8.46875 0 Z M 3 0 "/></g></g></g><g fill="#ffffff" fill-opacity="1"><g transform="translate(165.437638, 191.790338)"><g><path d="M 13.171875 0.515625 C 11.003906 0.515625 9.09375 0.046875 7.4375 -0.890625 C 5.789062 -1.835938 4.488281 -3.148438 3.53125 -4.828125 C 2.570312 -6.515625 2.09375 -8.441406 2.09375 -10.609375 C 2.09375 -12.773438 2.570312 -14.695312 3.53125 -16.375 C 4.488281 -18.0625 5.789062 -19.375 7.4375 -20.3125 C 9.09375 -21.257812 11.003906 -21.734375 13.171875 -21.734375 C 15.878906 -21.734375 18.160156 -21.023438 20.015625 -19.609375 C 21.867188 -18.203125 23.054688 -16.257812 23.578125 -13.78125 L 17.796875 -13.78125 C 17.515625 -14.800781 16.953125 -15.601562 16.109375 -16.1875 C 15.265625 -16.769531 14.273438 -17.0625 13.140625 -17.0625 C 11.617188 -17.0625 10.332031 -16.488281 9.28125 -15.34375 C 8.226562 -14.207031 7.703125 -12.628906 7.703125 -10.609375 C 7.703125 -8.585938 8.226562 -7.003906 9.28125 -5.859375 C 10.332031 -4.722656 11.617188 -4.15625 13.140625 -4.15625 C 14.273438 -4.15625 15.265625 -4.4375 16.109375 -5 C 16.953125 -5.570312 17.515625 -6.382812 17.796875 -7.4375 L 23.578125 -7.4375 C 23.054688 -5.039062 21.867188 -3.113281 20.015625 -1.65625 C 18.160156 -0.207031 15.878906 0.515625 13.171875 0.515625 Z M 13.171875 0.515625 "/></g></g></g><g fill="#ffffff" fill-opacity="1"><g transform="translate(191.101653, 191.790338)"><g><path d="M 2.78125 0 L 2.78125 -30.796875 L 8.25 -30.796875 L 8.25 -12.625 L 15.78125 -21.21875 L 22.296875 -21.21875 L 13.609375 -11.546875 L 23.703125 0 L 16.859375 0 L 8.25 -10.65625 L 8.25 0 Z M 2.78125 0 "/></g></g></g><g fill="#6a38c2" fill-opacity="1"><g transform="translate(215.397653, 191.790338)"><g><path d="M 2.90625 0 L 2.90625 -29.953125 L 8.390625 -29.953125 L 8.390625 -17.5 L 21.8125 -17.5 L 21.8125 -29.953125 L 27.296875 -29.953125 L 27.296875 0 L 21.8125 0 L 21.8125 -13.046875 L 8.390625 -13.046875 L 8.390625 0 Z M 2.90625 0 "/></g></g></g><g fill="#6a38c2" fill-opacity="1"><g transform="translate(245.595645, 191.790338)"><g><path d="M 5.734375 -24.515625 C 4.734375 -24.515625 3.910156 -24.8125 3.265625 -25.40625 C 2.628906 -26.007812 2.3125 -26.765625 2.3125 -27.671875 C 2.3125 -28.585938 2.628906 -29.335938 3.265625 -29.921875 C 3.910156 -30.503906 4.734375 -30.796875 5.734375 -30.796875 C 6.734375 -30.796875 7.550781 -30.503906 8.1875 -29.921875 C 8.832031 -29.335938 9.15625 -28.585938 9.15625 -27.671875 C 9.15625 -26.765625 8.832031 -26.007812 8.1875 -25.40625 C 7.550781 -24.8125 6.734375 -24.515625 5.734375 -24.515625 Z M 3 0 L 3 -21.21875 L 8.46875 -21.21875 L 8.46875 0 Z M 3 0 "/></g></g></g><g fill="#6a38c2" fill-opacity="1"><g transform="translate(257.016139, 191.790338)"><g><path d="M 2.78125 0 L 2.78125 -21.21875 L 7.65625 -21.21875 L 8.171875 -17.234375 C 8.941406 -18.609375 9.988281 -19.703125 11.3125 -20.515625 C 12.644531 -21.328125 14.207031 -21.734375 16 -21.734375 L 16 -15.953125 L 14.453125 -15.953125 C 13.253906 -15.953125 12.1875 -15.765625 11.25 -15.390625 C 10.3125 -15.023438 9.578125 -14.382812 9.046875 -13.46875 C 8.515625 -12.5625 8.25 -11.296875 8.25 -9.671875 L 8.25 0 Z M 2.78125 0 "/></g></g></g><g fill="#6a38c2" fill-opacity="1"><g transform="translate(273.954389, 191.790338)"><g><path d="M 13.09375 0.515625 C 10.945312 0.515625 9.046875 0.0625 7.390625 -0.84375 C 5.742188 -1.757812 4.445312 -3.046875 3.5 -4.703125 C 2.5625 -6.359375 2.09375 -8.269531 2.09375 -10.4375 C 2.09375 -12.632812 2.554688 -14.585938 3.484375 -16.296875 C 4.410156 -18.003906 5.691406 -19.335938 7.328125 -20.296875 C 8.972656 -21.253906 10.910156 -21.734375 13.140625 -21.734375 C 15.210938 -21.734375 17.046875 -21.273438 18.640625 -20.359375 C 20.242188 -19.453125 21.492188 -18.207031 22.390625 -16.625 C 23.296875 -15.039062 23.75 -13.28125 23.75 -11.34375 C 23.75 -11.019531 23.738281 -10.6875 23.71875 -10.34375 C 23.707031 -10.007812 23.6875 -9.65625 23.65625 -9.28125 L 7.53125 -9.28125 C 7.644531 -7.625 8.222656 -6.328125 9.265625 -5.390625 C 10.304688 -4.453125 11.566406 -3.984375 13.046875 -3.984375 C 14.160156 -3.984375 15.09375 -4.226562 15.84375 -4.71875 C 16.601562 -5.21875 17.171875 -5.867188 17.546875 -6.671875 L 23.109375 -6.671875 C 22.703125 -5.328125 22.035156 -4.109375 21.109375 -3.015625 C 20.179688 -1.921875 19.039062 -1.054688 17.6875 -0.421875 C 16.332031 0.203125 14.800781 0.515625 13.09375 0.515625 Z M 13.140625 -17.28125 C 11.796875 -17.28125 10.609375 -16.898438 9.578125 -16.140625 C 8.554688 -15.390625 7.898438 -14.242188 7.609375 -12.703125 L 18.1875 -12.703125 C 18.09375 -14.097656 17.578125 -15.207031 16.640625 -16.03125 C 15.703125 -16.863281 14.535156 -17.28125 13.140625 -17.28125 Z M 13.140625 -17.28125 "/></g></g></g></svg>