<svg xmlns="http://www.w3.org/2000/svg" xmlns:xlink="http://www.w3.org/1999/xlink" width="500" zoomAndPan="magnify" viewBox="0 0 375 374.999991" height="500" preserveAspectRatio="xMidYMid meet" version="1.0"><defs><g/><clipPath id="5db903bc3b"><path d="M 69.464844 147.027344 L 145.964844 147.027344 L 145.964844 227.859375 L 69.464844 227.859375 Z M 69.464844 147.027344 " clip-rule="nonzero"/></clipPath><clipPath id="deb30a2972"><path d="M 122 158.222656 L 216.917969 158.222656 L 216.917969 196.105469 L 122 196.105469 Z M 122 158.222656 " clip-rule="nonzero"/></clipPath><clipPath id="eff16b550e"><path d="M 84.472656 161.390625 L 116.023438 161.390625 L 116.023438 192.941406 L 84.472656 192.941406 Z M 84.472656 161.390625 " clip-rule="nonzero"/></clipPath><clipPath id="48b7079d3e"><path d="M 100.25 161.390625 C 91.535156 161.390625 84.472656 168.453125 84.472656 177.164062 C 84.472656 185.878906 91.535156 192.941406 100.25 192.941406 C 108.960938 192.941406 116.023438 185.878906 116.023438 177.164062 C 116.023438 168.453125 108.960938 161.390625 100.25 161.390625 Z M 100.25 161.390625 " clip-rule="nonzero"/></clipPath><clipPath id="2b2195b60f"><path d="M 299 144.40625 L 309 144.40625 L 309 150 L 299 150 Z M 299 144.40625 " clip-rule="nonzero"/></clipPath><clipPath id="acf4b13cd1"><path d="M 308 171 L 313 171 L 313 190.15625 L 308 190.15625 Z M 308 171 " clip-rule="nonzero"/></clipPath><clipPath id="915a84c529"><path d="M 302 167 L 308 167 L 308 190.15625 L 302 190.15625 Z M 302 167 " clip-rule="nonzero"/></clipPath><clipPath id="9bd05e1def"><path d="M 275.554688 147 L 308 147 L 308 170 L 275.554688 170 Z M 275.554688 147 " clip-rule="nonzero"/></clipPath><clipPath id="c1f2f45d24"><path d="M 309 168 L 317.953125 168 L 317.953125 176 L 309 176 Z M 309 168 " clip-rule="nonzero"/></clipPath></defs><g clip-path="url(#5db903bc3b)"><path fill="#6a38c2" d="M 121.945312 178.976562 C 121.664062 184.585938 119.257812 190.050781 114.753906 194.117188 C 110.261719 198.179688 104.585938 200.023438 98.972656 199.742188 C 93.359375 199.453125 87.894531 197.050781 83.828125 192.558594 C 79.765625 188.058594 77.933594 182.382812 78.207031 176.761719 C 78.492188 171.15625 80.898438 165.691406 85.394531 161.632812 C 89.890625 157.570312 95.570312 155.722656 101.179688 156.007812 C 106.796875 156.289062 112.253906 158.691406 116.320312 163.191406 C 120.386719 167.683594 122.21875 173.367188 121.945312 178.976562 Z M 143.996094 218.855469 L 124.109375 196.847656 C 128.148438 191.746094 130.375 185.628906 130.691406 179.425781 C 131.097656 171.601562 128.484375 163.585938 122.820312 157.316406 C 117.15625 151.046875 109.4375 147.648438 101.621094 147.257812 C 93.800781 146.855469 85.78125 149.460938 79.527344 155.128906 C 73.246094 160.800781 69.855469 168.507812 69.464844 176.324219 C 69.054688 184.144531 71.664062 192.160156 77.328125 198.429688 C 82.996094 204.699219 90.710938 208.097656 98.53125 208.488281 C 104.734375 208.808594 111.054688 207.199219 116.535156 203.699219 L 136.414062 225.699219 C 138.308594 227.796875 141.539062 227.953125 143.632812 226.0625 C 145.726562 224.175781 145.886719 220.941406 143.996094 218.855469 " fill-opacity="1" fill-rule="nonzero"/></g><g clip-path="url(#deb30a2972)"><path fill="#6a38c2" d="M 122 158.222656 L 216.859375 158.222656 L 216.859375 196.105469 L 122 196.105469 Z M 122 158.222656 " fill-opacity="1" fill-rule="nonzero"/></g><g clip-path="url(#eff16b550e)"><g clip-path="url(#48b7079d3e)"><path fill="#6a38c2" d="M 84.472656 161.390625 L 116.023438 161.390625 L 116.023438 192.941406 L 84.472656 192.941406 Z M 84.472656 161.390625 " fill-opacity="1" fill-rule="nonzero"/></g></g><g fill="#ffffff" fill-opacity="1"><g transform="translate(128.01094, 191.790338)"><g><path d="M 10.734375 0.515625 C 8.085938 0.515625 6.039062 -0.3125 4.59375 -1.96875 C 3.15625 -3.625 2.4375 -6.046875 2.4375 -9.234375 L 2.4375 -21.21875 L 7.875 -21.21875 L 7.875 -9.75 C 7.875 -7.925781 8.242188 -6.53125 8.984375 -5.5625 C 9.722656 -4.59375 10.890625 -4.109375 12.484375 -4.109375 C 14.003906 -4.109375 15.253906 -4.648438 16.234375 -5.734375 C 17.222656 -6.816406 17.71875 -8.328125 17.71875 -10.265625 L 17.71875 -21.21875 L 23.1875 -21.21875 L 23.1875 0 L 18.359375 0 L 17.921875 -3.59375 C 17.265625 -2.34375 16.316406 -1.34375 15.078125 -0.59375 C 13.835938 0.144531 12.390625 0.515625 10.734375 0.515625 Z M 10.734375 0.515625 "/></g></g></g><g fill="#ffffff" fill-opacity="1"><g transform="translate(154.017145, 191.790338)"><g><path d="M 5.734375 -24.515625 C 4.734375 -24.515625 3.910156 -24.8125 3.265625 -25.40625 C 2.628906 -26.007812 2.3125 -26.765625 2.3125 -27.671875 C 2.3125 -28.585938 2.628906 -29.335938 3.265625 -29.921875 C 3.910156 -30.503906 4.734375 -30.796875 5.734375 -30.796875 C 6.734375 -30.796875 7.550781 -30.503906 8.1875 -29.921875 C 8.832031 -29.335938 9.15625 -28.585938 9.15625 -27.671875 C 9.15625 -26.765625 8.832031 -26.007812 8.1875 -25.40625 C 7.550781 -24.8125 6.734375 -24.515625 5.734375 -24.515625 Z M 3 0 L 3 -21.21875 L 8.46875 -21.21875 L 8.46875 0 Z M 3 0 "/></g></g></g><g fill="#ffffff" fill-opacity="1"><g transform="translate(165.437638, 191.790338)"><g><path d="M 13.171875 0.515625 C 11.003906 0.515625 9.09375 0.046875 7.4375 -0.890625 C 5.789062 -1.835938 4.488281 -3.148438 3.53125 -4.828125 C 2.570312 -6.515625 2.09375 -8.441406 2.09375 -10.609375 C 2.09375 -12.773438 2.570312 -14.695312 3.53125 -16.375 C 4.488281 -18.0625 5.789062 -19.375 7.4375 -20.3125 C 9.09375 -21.257812 11.003906 -21.734375 13.171875 -21.734375 C 15.878906 -21.734375 18.160156 -21.023438 20.015625 -19.609375 C 21.867188 -18.203125 23.054688 -16.257812 23.578125 -13.78125 L 17.796875 -13.78125 C 17.515625 -14.800781 16.953125 -15.601562 16.109375 -16.1875 C 15.265625 -16.769531 14.273438 -17.0625 13.140625 -17.0625 C 11.617188 -17.0625 10.332031 -16.488281 9.28125 -15.34375 C 8.226562 -14.207031 7.703125 -12.628906 7.703125 -10.609375 C 7.703125 -8.585938 8.226562 -7.003906 9.28125 -5.859375 C 10.332031 -4.722656 11.617188 -4.15625 13.140625 -4.15625 C 14.273438 -4.15625 15.265625 -4.4375 16.109375 -5 C 16.953125 -5.570312 17.515625 -6.382812 17.796875 -7.4375 L 23.578125 -7.4375 C 23.054688 -5.039062 21.867188 -3.113281 20.015625 -1.65625 C 18.160156 -0.207031 15.878906 0.515625 13.171875 0.515625 Z M 13.171875 0.515625 "/></g></g></g><g fill="#ffffff" fill-opacity="1"><g transform="translate(191.101653, 191.790338)"><g><path d="M 2.78125 0 L 2.78125 -30.796875 L 8.25 -30.796875 L 8.25 -12.625 L 15.78125 -21.21875 L 22.296875 -21.21875 L 13.609375 -11.546875 L 23.703125 0 L 16.859375 0 L 8.25 -10.65625 L 8.25 0 Z M 2.78125 0 "/></g></g></g><g fill="#6a38c2" fill-opacity="1"><g transform="translate(215.397653, 191.790338)"><g><path d="M 2.90625 0 L 2.90625 -29.953125 L 8.390625 -29.953125 L 8.390625 -17.5 L 21.8125 -17.5 L 21.8125 -29.953125 L 27.296875 -29.953125 L 27.296875 0 L 21.8125 0 L 21.8125 -13.046875 L 8.390625 -13.046875 L 8.390625 0 Z M 2.90625 0 "/></g></g></g><g fill="#6a38c2" fill-opacity="1"><g transform="translate(245.595645, 191.790338)"><g><path d="M 5.734375 -24.515625 C 4.734375 -24.515625 3.910156 -24.8125 3.265625 -25.40625 C 2.628906 -26.007812 2.3125 -26.765625 2.3125 -27.671875 C 2.3125 -28.585938 2.628906 -29.335938 3.265625 -29.921875 C 3.910156 -30.503906 4.734375 -30.796875 5.734375 -30.796875 C 6.734375 -30.796875 7.550781 -30.503906 8.1875 -29.921875 C 8.832031 -29.335938 9.15625 -28.585938 9.15625 -27.671875 C 9.15625 -26.765625 8.832031 -26.007812 8.1875 -25.40625 C 7.550781 -24.8125 6.734375 -24.515625 5.734375 -24.515625 Z M 3 0 L 3 -21.21875 L 8.46875 -21.21875 L 8.46875 0 Z M 3 0 "/></g></g></g><g fill="#6a38c2" fill-opacity="1"><g transform="translate(257.016139, 191.790338)"><g><path d="M 2.78125 0 L 2.78125 -21.21875 L 7.65625 -21.21875 L 8.171875 -17.234375 C 8.941406 -18.609375 9.988281 -19.703125 11.3125 -20.515625 C 12.644531 -21.328125 14.207031 -21.734375 16 -21.734375 L 16 -15.953125 L 14.453125 -15.953125 C 13.253906 -15.953125 12.1875 -15.765625 11.25 -15.390625 C 10.3125 -15.023438 9.578125 -14.382812 9.046875 -13.46875 C 8.515625 -12.5625 8.25 -11.296875 8.25 -9.671875 L 8.25 0 Z M 2.78125 0 "/></g></g></g><g fill="#6a38c2" fill-opacity="1"><g transform="translate(273.954389, 191.790338)"><g><path d="M 13.09375 0.515625 C 10.945312 0.515625 9.046875 0.0625 7.390625 -0.84375 C 5.742188 -1.757812 4.445312 -3.046875 3.5 -4.703125 C 2.5625 -6.359375 2.09375 -8.269531 2.09375 -10.4375 C 2.09375 -12.632812 2.554688 -14.585938 3.484375 -16.296875 C 4.410156 -18.003906 5.691406 -19.335938 7.328125 -20.296875 C 8.972656 -21.253906 10.910156 -21.734375 13.140625 -21.734375 C 15.210938 -21.734375 17.046875 -21.273438 18.640625 -20.359375 C 20.242188 -19.453125 21.492188 -18.207031 22.390625 -16.625 C 23.296875 -15.039062 23.75 -13.28125 23.75 -11.34375 C 23.75 -11.019531 23.738281 -10.6875 23.71875 -10.34375 C 23.707031 -10.007812 23.6875 -9.65625 23.65625 -9.28125 L 7.53125 -9.28125 C 7.644531 -7.625 8.222656 -6.328125 9.265625 -5.390625 C 10.304688 -4.453125 11.566406 -3.984375 13.046875 -3.984375 C 14.160156 -3.984375 15.09375 -4.226562 15.84375 -4.71875 C 16.601562 -5.21875 17.171875 -5.867188 17.546875 -6.671875 L 23.109375 -6.671875 C 22.703125 -5.328125 22.035156 -4.109375 21.109375 -3.015625 C 20.179688 -1.921875 19.039062 -1.054688 17.6875 -0.421875 C 16.332031 0.203125 14.800781 0.515625 13.09375 0.515625 Z M 13.140625 -17.28125 C 11.796875 -17.28125 10.609375 -16.898438 9.578125 -16.140625 C 8.554688 -15.390625 7.898438 -14.242188 7.609375 -12.703125 L 18.1875 -12.703125 C 18.09375 -14.097656 17.578125 -15.207031 16.640625 -16.03125 C 15.703125 -16.863281 14.535156 -17.28125 13.140625 -17.28125 Z M 13.140625 -17.28125 "/></g></g></g><path fill="#6a38c2" d="M 291.144531 156.980469 L 288.4375 152.019531 C 289.125 152.324219 289.8125 152.671875 290.484375 153.058594 C 292.871094 154.445312 294.828125 156.203125 296.113281 157.96875 L 292.417969 157.78125 C 291.882812 157.753906 291.402344 157.449219 291.144531 156.980469 Z M 291.144531 156.980469 " fill-opacity="1" fill-rule="nonzero"/><path fill="#6a38c2" d="M 287.53125 147.144531 C 288.277344 146.730469 289.210938 147.011719 289.621094 147.757812 L 289.78125 148.050781 C 288.988281 147.726562 288.199219 147.457031 287.414062 147.238281 C 287.457031 147.210938 287.484375 147.167969 287.53125 147.144531 Z M 287.53125 147.144531 " fill-opacity="1" fill-rule="nonzero"/><g clip-path="url(#2b2195b60f)"><path fill="#6a38c2" d="M 305.082031 149.0625 C 304.8125 148.738281 304.433594 148.539062 304.011719 148.503906 C 303.964844 148.5 303.917969 148.496094 303.871094 148.496094 C 303.230469 148.496094 302.691406 148.878906 302.445312 149.4375 L 301.789062 149.378906 C 301.632812 148.746094 301.101562 148.246094 300.417969 148.183594 C 300.371094 148.179688 300.324219 148.175781 300.277344 148.175781 C 299.964844 148.175781 299.691406 148.285156 299.449219 148.441406 C 299.730469 146.710938 301.035156 145.253906 302.855469 144.886719 C 305.199219 144.410156 307.484375 145.925781 307.960938 148.273438 C 308.074219 148.835938 308.066406 149.394531 307.96875 149.929688 L 305.386719 149.699219 C 305.332031 149.46875 305.238281 149.25 305.082031 149.0625 Z M 305.082031 149.0625 " fill-opacity="1" fill-rule="nonzero"/></g><path fill="#6a38c2" d="M 300.277344 151.324219 C 301.097656 151.324219 301.773438 150.707031 301.84375 149.890625 C 301.847656 149.875 301.839844 149.859375 301.839844 149.84375 L 302.320312 149.882812 C 302.316406 149.902344 302.308594 149.914062 302.304688 149.933594 C 302.230469 150.796875 302.871094 151.5625 303.734375 151.640625 C 303.78125 151.644531 303.828125 151.644531 303.875 151.644531 C 304.695312 151.644531 305.367188 151.027344 305.441406 150.210938 C 305.441406 150.195312 305.433594 150.179688 305.4375 150.160156 L 307.84375 150.375 C 307.394531 151.851562 306.191406 153.050781 304.574219 153.378906 C 302.691406 153.757812 300.867188 152.847656 299.96875 151.269531 C 300.027344 151.28125 300.078125 151.3125 300.136719 151.320312 C 300.183594 151.324219 300.230469 151.324219 300.277344 151.324219 Z M 300.277344 151.324219 " fill-opacity="1" fill-rule="nonzero"/><g clip-path="url(#acf4b13cd1)"><path fill="#6a38c2" d="M 309.015625 171.921875 L 312.867188 174.15625 L 312.867188 187.910156 C 312.867188 189.222656 311.800781 190.289062 310.488281 190.289062 C 309.171875 190.289062 308.105469 189.222656 308.105469 187.910156 L 308.105469 172.324219 C 308.113281 172.324219 308.117188 172.324219 308.125 172.324219 C 308.460938 172.277344 308.753906 172.121094 309.015625 171.921875 Z M 309.015625 171.921875 " fill-opacity="1" fill-rule="nonzero"/></g><path fill="#6a38c2" d="M 311.992188 168.253906 C 312.242188 168.082031 312.5 167.910156 312.753906 167.738281 C 312.765625 167.730469 312.777344 167.722656 312.789062 167.714844 L 312.804688 167.785156 C 312.824219 167.894531 312.804688 167.996094 312.804688 168.097656 C 312.820312 168.207031 312.867188 168.304688 312.867188 168.417969 L 312.867188 168.761719 Z M 311.992188 168.253906 " fill-opacity="1" fill-rule="nonzero"/><g clip-path="url(#915a84c529)"><path fill="#6a38c2" d="M 302.453125 187.910156 L 302.453125 169.148438 L 302.214844 167.972656 L 305.875 170.097656 C 305.875 170.277344 305.851562 170.449219 305.878906 170.640625 C 305.988281 171.394531 306.523438 171.992188 307.214844 172.226562 L 307.214844 187.910156 C 307.214844 189.222656 306.148438 190.289062 304.832031 190.289062 C 303.519531 190.289062 302.453125 189.222656 302.453125 187.910156 Z M 302.453125 187.910156 " fill-opacity="1" fill-rule="nonzero"/></g><g clip-path="url(#9bd05e1def)"><path fill="#6a38c2" d="M 301.734375 167.023438 C 301.222656 166.726562 300.925781 166.199219 300.898438 165.648438 L 298.710938 164.378906 C 298.707031 164.386719 298.703125 164.394531 298.695312 164.40625 C 297.734375 166.058594 295.742188 166.960938 293.0625 166.960938 C 292.960938 166.960938 292.855469 166.957031 292.753906 166.957031 C 290.023438 166.886719 286.914062 165.917969 284 164.222656 C 281.085938 162.53125 278.703125 160.3125 277.289062 157.972656 C 275.820312 155.546875 275.5625 153.265625 276.558594 151.546875 L 277.613281 149.738281 C 278.609375 148.019531 280.722656 147.113281 283.554688 147.1875 C 286.285156 147.253906 289.394531 148.226562 292.308594 149.917969 C 295.222656 151.609375 297.605469 153.828125 299.019531 156.167969 C 300.484375 158.59375 300.746094 160.875 299.746094 162.59375 C 299.734375 162.621094 299.714844 162.644531 299.699219 162.671875 L 301.890625 163.945312 C 302.382812 163.695312 302.984375 163.691406 303.5 163.988281 L 307.792969 166.484375 C 306.84375 167.339844 306.117188 168.304688 305.914062 169.453125 Z M 290.773438 152.558594 C 287.777344 150.820312 284.683594 149.9375 282.179688 149.9375 C 280.453125 149.9375 279.007812 150.359375 278.066406 151.207031 C 277.792969 152.46875 278.164062 154.011719 279.164062 155.664062 C 280.496094 157.867188 282.757812 159.96875 285.535156 161.582031 C 290.59375 164.519531 295.941406 165.011719 298.242188 162.929688 C 298.910156 159.898438 295.832031 155.5 290.773438 152.558594 Z M 290.773438 152.558594 " fill-opacity="1" fill-rule="nonzero"/></g><g clip-path="url(#c1f2f45d24)"><path fill="#6a38c2" d="M 309.816406 170.160156 C 309.851562 170.089844 309.96875 169.882812 310.324219 169.539062 C 310.640625 169.238281 311.039062 168.925781 311.46875 168.617188 L 316.882812 171.761719 C 317.6875 172.230469 317.960938 173.261719 317.492188 174.066406 L 317.421875 174.1875 C 316.957031 174.992188 315.925781 175.265625 315.117188 174.796875 L 309.453125 171.507812 C 309.734375 171.113281 309.867188 170.640625 309.816406 170.160156 Z M 309.816406 170.160156 " fill-opacity="1" fill-rule="nonzero"/></g><path fill="#6a38c2" d="M 312.511719 167.367188 C 311.601562 167.976562 310.664062 168.601562 310.019531 169.21875 C 309.453125 169.761719 309.359375 170.070312 309.367188 170.144531 C 309.488281 170.984375 308.902344 171.765625 308.0625 171.886719 C 307.988281 171.894531 307.914062 171.902344 307.84375 171.902344 C 307.085938 171.902344 306.429688 171.347656 306.320312 170.578125 C 305.957031 168.039062 308.53125 166.324219 310.800781 164.804688 C 311.472656 164.355469 312.441406 163.707031 312.828125 163.3125 C 311.992188 160.613281 311.105469 159.035156 310.371094 158.101562 L 309.945312 158.28125 C 310.367188 158.796875 310.863281 159.597656 311.371094 160.71875 L 311.933594 163.484375 C 311.503906 163.804688 310.964844 164.164062 310.558594 164.433594 C 309.785156 164.953125 308.984375 165.496094 308.261719 166.085938 L 303.789062 163.488281 C 303.445312 163.289062 303.050781 163.183594 302.65625 163.183594 C 302.410156 163.183594 302.164062 163.222656 301.933594 163.300781 L 301.179688 162.863281 L 300.839844 161.1875 C 301.101562 159.59375 300.660156 157.765625 299.511719 155.867188 C 299.339844 155.582031 299.109375 155.304688 298.910156 155.023438 L 301.363281 155.148438 L 308.4375 153.714844 C 308.472656 153.707031 308.503906 153.71875 308.539062 153.714844 C 308.550781 153.714844 308.558594 153.707031 308.570312 153.707031 C 308.667969 153.699219 308.820312 153.695312 309.011719 153.714844 C 309.019531 153.71875 309.027344 153.71875 309.035156 153.71875 C 309.894531 153.808594 311.570312 154.347656 313.277344 156.882812 C 314.179688 158.222656 315.089844 160.109375 315.890625 162.796875 C 316.464844 164.726562 314.542969 166.007812 312.511719 167.367188 Z M 312.511719 167.367188 " fill-opacity="1" fill-rule="nonzero"/><path fill="#6a38c2" d="M 300.378906 148.625 C 301 148.679688 301.460938 149.230469 301.40625 149.851562 C 301.347656 150.472656 300.800781 150.933594 300.175781 150.878906 C 299.554688 150.824219 299.09375 150.273438 299.152344 149.652344 C 299.207031 149.027344 299.753906 148.570312 300.378906 148.625 Z M 300.378906 148.625 " fill-opacity="1" fill-rule="nonzero"/><path fill="#6a38c2" d="M 303.972656 148.945312 C 304.597656 149 305.054688 149.550781 305 150.171875 C 304.945312 150.792969 304.394531 151.253906 303.773438 151.199219 C 303.152344 151.140625 302.691406 150.59375 302.746094 149.972656 C 302.800781 149.347656 303.351562 148.890625 303.972656 148.945312 Z M 303.972656 148.945312 " fill-opacity="1" fill-rule="nonzero"/><path fill="#6a38c2" d="M 286.015625 159.980469 C 290.292969 162.734375 294.988281 163.125 296.765625 160.945312 C 296.71875 161.046875 296.664062 161.144531 296.601562 161.242188 C 295 163.726562 290.09375 163.421875 285.644531 160.554688 C 281.195312 157.691406 278.886719 153.351562 280.484375 150.867188 C 280.53125 150.796875 280.582031 150.734375 280.632812 150.667969 C 280.652344 150.644531 280.667969 150.617188 280.6875 150.589844 C 280.679688 150.613281 280.679688 150.640625 280.667969 150.664062 C 279.492188 153.191406 281.773438 157.25 286.015625 159.980469 Z M 286.015625 159.980469 " fill-opacity="1" fill-rule="nonzero"/></svg>